<?xml version="1.0" encoding="iso-8859-1"?>
<!-- Generator: Adobe Illustrator 16.0.0, SVG Export Plug-In . SVG Version: 6.00 Build 0)  -->
<!DOCTYPE svg PUBLIC "-//W3C//DTD SVG 1.1//EN" "http://www.w3.org/Graphics/SVG/1.1/DTD/svg11.dtd">
<svg xmlns="http://www.w3.org/2000/svg" xmlns:xlink="http://www.w3.org/1999/xlink" version="1.1" id="Capa_1" x="0px" y="0px" width="512px" height="512px" viewBox="0 0 57.836 57.836" style="enable-background:new 0 0 57.836 57.836;" xml:space="preserve">
<g>
	<g>
		<path d="M55.05,21.676c0.569-1.312,0.867-2.734,0.867-4.175c0-3.724-2.011-7.203-5.247-9.082    c-2.559-1.479-5.708-1.803-8.493-0.896C38.738,2.843,33.216,0,27.377,0c-3.214,0-6.39,0.857-9.186,2.479    c-1.875,1.086-3.521,2.477-4.908,4.14C11.208,6.745,9.176,7.358,7.36,8.41c-4.149,2.404-6.727,6.866-6.727,11.646    c0,4.777,2.578,9.237,6.727,11.64c0.788,0.457,1.639,0.832,2.54,1.125c0.921,2.873,2.549,5.484,4.753,7.609    c0.795,0.766,2.062,0.744,2.828-0.051c0.767-0.797,0.744-2.062-0.052-2.828c-1.952-1.883-3.326-4.248-3.974-6.842    c-0.182-0.727-0.755-1.292-1.485-1.462c-0.952-0.224-1.828-0.563-2.606-1.014c-2.918-1.689-4.731-4.823-4.731-8.178    c0-3.357,1.813-6.493,4.731-8.185c1.442-0.835,3.077-1.277,4.635-1.28c0.049,0.004,0.181,0.014,0.229,0.014    c0.667,0.021,1.251-0.289,1.636-0.804c1.181-1.581,2.638-2.88,4.332-3.861c2.188-1.269,4.67-1.938,7.18-1.938    c5.099,0,9.708,2.628,12.333,7.03c0.547,0.917,1.716,1.244,2.66,0.74c1.947-1.039,4.369-1.002,6.296,0.11    c2.006,1.165,3.252,3.318,3.252,5.621c0,1.17-0.317,2.321-0.919,3.328c-0.428,0.715-0.366,1.62,0.15,2.271    c1.344,1.688,2.055,3.715,2.055,5.86c0,3.357-1.812,6.492-4.732,8.184c-1.441,0.836-3.076,1.277-4.726,1.277    c-0.396,0-0.804-0.029-1.24-0.09c-1.091-0.152-2.104,0.611-2.255,1.707s0.613,2.104,1.708,2.256    c0.621,0.084,1.206,0.127,1.787,0.127c2.353,0,4.681-0.629,6.729-1.816c4.149-2.402,6.729-6.863,6.729-11.645    C57.204,26.342,56.462,23.849,55.05,21.676z" fill="#FFFFFF"/>
		<path d="M25.2,48.828c1.13,0.658,2.416,1.008,3.719,1.008c2.642,0,5.104-1.426,6.427-3.721c0.553-0.957,0.225-2.18-0.732-2.73    c-0.961-0.555-2.18-0.223-2.731,0.732c-0.915,1.588-3.068,2.188-4.668,1.254c-0.52-0.303-0.955-0.736-1.256-1.26    c-0.554-0.955-1.777-1.281-2.733-0.729s-1.282,1.777-0.729,2.732C23.145,47.242,24.083,48.18,25.2,48.828z" fill="#FFFFFF"/>
		<path d="M40.607,49.297c-0.856-0.695-2.117-0.564-2.812,0.295c-2.185,2.697-5.42,4.244-8.877,4.244    c-2.024,0-3.942-0.521-5.708-1.551c-1.205-0.699-2.269-1.609-3.161-2.705c-0.696-0.857-1.956-0.986-2.813-0.291    c-0.857,0.697-0.986,1.957-0.289,2.812c1.2,1.477,2.632,2.701,4.253,3.641c2.346,1.369,5.015,2.094,7.718,2.094    c4.669,0,9.037-2.088,11.983-5.727C41.598,51.252,41.466,49.992,40.607,49.297z" fill="#FFFFFF"/>
	</g>
</g>
<g>
</g>
<g>
</g>
<g>
</g>
<g>
</g>
<g>
</g>
<g>
</g>
<g>
</g>
<g>
</g>
<g>
</g>
<g>
</g>
<g>
</g>
<g>
</g>
<g>
</g>
<g>
</g>
<g>
</g>
</svg>
